<svg width="77" height="77" viewBox="0 0 77 77" fill="none" xmlns="http://www.w3.org/2000/svg">
<g clip-path="url(#clip0_2_16)">
<path fill-rule="evenodd" clip-rule="evenodd" d="M15.4 9.95609C15.4 7.83089 17.1248 7.7 19.25 7.7H57.75C59.8752 7.7 61.6 7.83089 61.6 9.95609V14.7648L40.221 25.4562C39.1391 25.9952 37.8609 25.9952 36.779 25.4562L15.4 14.7648V9.95609ZM8.7626 20.0546L35.0581 33.2025C37.2257 34.2882 39.7743 34.2882 41.9419 33.2025L68.2374 20.0546C68.888 19.7312 69.3 19.0653 69.3 18.3338V6.10609C69.3 1.85184 65.8542 0 61.6 0H15.4C11.1457 0 7.7 1.85184 7.7 6.10609V18.3338C7.7 19.0653 8.11195 19.7312 8.7626 20.0546ZM69.3 63.8561C69.3 65.9813 67.5752 69.3 65.45 69.3H11.55C9.4248 69.3 7.7 65.9813 7.7 63.8561V38.9467C7.7 37.5184 9.20535 36.5866 10.4874 37.2257C26.565 45.2645 21.6255 42.7966 35.1082 49.538C37.2449 50.6083 39.7628 50.6237 41.9111 49.5765C55.2745 43.0931 49.6573 45.8035 66.5434 37.6954C67.8177 37.0794 69.3 38.0111 69.3 39.4317V63.8561ZM65.8581 28.9443L40.221 41.7649C39.1391 42.3039 37.8609 42.3039 36.779 41.7649L11.1419 28.9443C6.02524 26.3879 0 30.1109 0 35.832V67.7061C0 71.9603 3.44575 77 7.7 77H69.3C73.5542 77 77 71.9603 77 67.7061V35.832C77 30.1109 70.9748 26.3879 65.8581 28.9443Z" fill="white"/>
</g>
<defs>
<clipPath id="clip0_2_16">
<rect width="77" height="77" fill="white"/>
</clipPath>
</defs>
</svg>
