<svg width="91" height="91" viewBox="0 0 91 91" fill="none" xmlns="http://www.w3.org/2000/svg">
<path fill-rule="evenodd" clip-rule="evenodd" d="M7.58333 22.75C7.58333 14.3737 14.3737 7.58334 22.75 7.58334H68.25C76.6262 7.58334 83.4167 14.3737 83.4167 22.75V68.25C83.4167 76.6262 76.6262 83.4167 68.25 83.4167H22.75C14.3737 83.4167 7.58333 76.6262 7.58333 68.25V22.75ZM22.75 15.1667C18.5618 15.1667 15.1667 18.5618 15.1667 22.75V68.25C15.1667 72.4383 18.5618 75.8333 22.75 75.8333H45.5V49.2917H41.7083C39.6142 49.2917 37.9167 47.5941 37.9167 45.5C37.9167 43.4059 39.6142 41.7083 41.7083 41.7083H45.5V36.0208C45.5 28.6915 51.4415 22.75 58.7708 22.75H61.0458C63.14 22.75 64.8375 24.4476 64.8375 26.5417C64.8375 28.6357 63.14 30.3333 61.0458 30.3333H58.7708C55.6298 30.3333 53.0833 32.8797 53.0833 36.0208V41.7083H61.0458C63.14 41.7083 64.8375 43.4059 64.8375 45.5C64.8375 47.5941 63.14 49.2917 61.0458 49.2917H53.0833V75.8333H68.25C72.4383 75.8333 75.8333 72.4383 75.8333 68.25V22.75C75.8333 18.5618 72.4383 15.1667 68.25 15.1667H22.75Z" fill="white"/>
</svg>
