<svg width="83" height="83" viewBox="0 0 83 83" fill="none" xmlns="http://www.w3.org/2000/svg">
<path fill-rule="evenodd" clip-rule="evenodd" d="M41.5 62.25C52.9599 62.25 62.25 52.9599 62.25 41.5C62.25 30.0401 52.9599 20.75 41.5 20.75C30.0401 20.75 20.75 30.0401 20.75 41.5C20.75 52.9599 30.0401 62.25 41.5 62.25ZM41.5 55.3333C49.1398 55.3333 55.3333 49.1398 55.3333 41.5C55.3333 33.8601 49.1398 27.6667 41.5 27.6667C33.8601 27.6667 27.6667 33.8601 27.6667 41.5C27.6667 49.1398 33.8601 55.3333 41.5 55.3333Z" fill="white"/>
<path d="M62.25 17.2917C60.34 17.2917 58.7917 18.84 58.7917 20.75C58.7917 22.66 60.34 24.2083 62.25 24.2083C64.16 24.2083 65.7083 22.66 65.7083 20.75C65.7083 18.84 64.16 17.2917 62.25 17.2917Z" fill="white"/>
<path fill-rule="evenodd" clip-rule="evenodd" d="M5.71995 14.788C3.45834 19.2267 3.45834 25.0373 3.45834 36.6583V46.3417C3.45834 57.9627 3.45834 63.7734 5.71995 68.2118C7.70932 72.1163 10.8837 75.2907 14.788 77.2799C19.2267 79.5417 25.0373 79.5417 36.6583 79.5417H46.3417C57.9627 79.5417 63.7734 79.5417 68.2118 77.2799C72.1163 75.2907 75.2907 72.1163 77.2799 68.2118C79.5417 63.7734 79.5417 57.9627 79.5417 46.3417V36.6583C79.5417 25.0373 79.5417 19.2267 77.2799 14.788C75.2907 10.8837 72.1163 7.70932 68.2118 5.71995C63.7734 3.45834 57.9627 3.45834 46.3417 3.45834H36.6583C25.0373 3.45834 19.2267 3.45834 14.788 5.71995C10.8837 7.70932 7.70932 10.8837 5.71995 14.788ZM46.3417 10.375H36.6583C30.7337 10.375 26.7061 10.3804 23.593 10.6347C20.5606 10.8825 19.0099 11.3315 17.9281 11.8827C15.3252 13.209 13.209 15.3252 11.8827 17.9281C11.3315 19.0099 10.8825 20.5606 10.6347 23.593C10.3804 26.7061 10.375 30.7337 10.375 36.6583V46.3417C10.375 52.2665 10.3804 56.2937 10.6347 59.4069C10.8825 62.4395 11.3315 63.9902 11.8827 65.072C13.209 67.6747 15.3252 69.7909 17.9281 71.1172C19.0099 71.6684 20.5606 72.1177 23.593 72.3653C26.7061 72.6195 30.7337 72.625 36.6583 72.625H46.3417C52.2665 72.625 56.2937 72.6195 59.4069 72.3653C62.4395 72.1177 63.9902 71.6684 65.072 71.1172C67.6747 69.7909 69.7909 67.6747 71.1172 65.072C71.6684 63.9902 72.1177 62.4395 72.3653 59.4069C72.6195 56.2937 72.625 52.2665 72.625 46.3417V36.6583C72.625 30.7337 72.6195 26.7061 72.3653 23.593C72.1177 20.5606 71.6684 19.0099 71.1172 17.9281C69.7909 15.3252 67.6747 13.209 65.072 11.8827C63.9902 11.3315 62.4395 10.8825 59.4069 10.6347C56.2937 10.3804 52.2665 10.375 46.3417 10.375Z" fill="white"/>
</svg>
