<svg width="126" height="47" viewBox="0 0 126 47" fill="none" xmlns="http://www.w3.org/2000/svg">
<path d="M125.673 34.656V36H112.761V34.656L115.401 34.32C115.913 34.256 116.217 34.128 116.313 33.936C116.409 33.712 116.457 33.056 116.457 31.968V19.872C116.457 17.664 116.121 16.064 115.449 15.072C114.809 14.048 113.849 13.536 112.569 13.536C112.025 13.536 111.385 13.68 110.649 13.968C109.945 14.224 109.225 14.704 108.489 15.408C107.785 16.112 107.161 17.152 106.617 18.528V31.968C106.617 33.056 106.665 33.712 106.761 33.936C106.857 34.128 107.161 34.256 107.673 34.32L110.313 34.656V36H97.4009V34.656L100.041 34.32C100.553 34.256 100.857 34.128 100.953 33.936C101.049 33.712 101.097 33.056 101.097 31.968V15.696C101.097 14.608 101.049 13.968 100.953 13.776C100.857 13.552 100.553 13.408 100.041 13.344L97.4009 13.008V11.664H106.329V15.888C107.257 14.256 108.441 13.072 109.881 12.336C111.353 11.568 112.825 11.184 114.297 11.184C116.665 11.184 118.537 11.936 119.913 13.44C121.289 14.944 121.977 17.072 121.977 19.824V31.968C121.977 33.056 122.025 33.712 122.121 33.936C122.217 34.128 122.521 34.256 123.033 34.32L125.673 34.656Z" fill="black"/>
<path d="M89.0673 7.53598C88.0753 7.53598 87.2753 7.23198 86.6673 6.62398C86.0593 5.98398 85.7552 5.16798 85.7552 4.17598C85.7552 3.18398 86.0593 2.38398 86.6673 1.77598C87.2753 1.16798 88.0753 0.863983 89.0673 0.863983C90.0273 0.863983 90.8273 1.16798 91.4673 1.77598C92.1073 2.38398 92.4273 3.18398 92.4273 4.17598C92.4273 5.16798 92.1073 5.98398 91.4673 6.62398C90.8273 7.23198 90.0273 7.53598 89.0673 7.53598ZM82.6353 13.008V11.664H91.8512V31.968C91.8512 33.056 91.8992 33.712 91.9952 33.936C92.0912 34.128 92.3952 34.256 92.9072 34.32L95.5472 34.656V36H82.6353V34.656L85.2753 34.32C85.7873 34.256 86.0912 34.128 86.1872 33.936C86.2832 33.712 86.3313 33.056 86.3313 31.968V15.696C86.3313 14.608 86.2832 13.968 86.1872 13.776C86.0912 13.552 85.7873 13.408 85.2753 13.344L82.6353 13.008Z" fill="black"/>
<path d="M54.2211 13.008V11.664H63.1491V15.648C64.0771 14.144 65.0851 13.024 66.1731 12.288C67.2611 11.552 68.5571 11.184 70.0611 11.184C72.7491 11.184 74.8771 12.256 76.4451 14.4C78.0451 16.512 78.8451 19.488 78.8451 23.328V24.288C78.8451 28 77.9331 30.96 76.1091 33.168C74.2851 35.376 71.7571 36.48 68.5251 36.48C66.6051 36.48 64.9091 36 63.4371 35.04V42.192C63.4371 43.28 63.4851 43.92 63.5811 44.112C63.6771 44.336 63.9811 44.48 64.4931 44.544L68.0931 44.88V46.224H54.2211V44.88L56.8611 44.544C57.3731 44.48 57.6771 44.336 57.7731 44.112C57.8691 43.92 57.9171 43.28 57.9171 42.192V15.696C57.9171 14.608 57.8691 13.968 57.7731 13.776C57.6771 13.552 57.3731 13.408 56.8611 13.344L54.2211 13.008ZM68.8131 13.296C68.0131 13.296 67.1651 13.632 66.2691 14.304C65.4051 14.944 64.4611 16.272 63.4371 18.288V32.784C64.6531 34 66.1411 34.608 67.9011 34.608C69.6931 34.608 70.9731 33.824 71.7411 32.256C72.5411 30.656 72.9411 28.48 72.9411 25.728V21.888C72.9411 18.912 72.5731 16.736 71.8371 15.36C71.1011 13.984 70.0931 13.296 68.8131 13.296Z" fill="black"/>
<path d="M52.6638 34.656V36H43.7358V31.776C42.8398 33.408 41.6878 34.608 40.2798 35.376C38.8718 36.112 37.4478 36.48 36.0078 36.48C33.7358 36.48 31.9278 35.728 30.5838 34.224C29.2398 32.688 28.5678 30.56 28.5678 27.84V15.696C28.5678 14.608 28.5198 13.968 28.4238 13.776C28.3278 13.552 28.0238 13.408 27.5118 13.344L24.8718 13.008V11.664H34.0878V27.792C34.0878 30 34.3918 31.616 34.9998 32.64C35.6398 33.632 36.5518 34.128 37.7358 34.128C38.2478 34.128 38.8398 34 39.5118 33.744C40.2158 33.456 40.9198 32.96 41.6238 32.256C42.3278 31.52 42.9358 30.48 43.4478 29.136V15.696C43.4478 14.608 43.3998 13.952 43.3038 13.728C43.2078 13.504 42.9038 13.376 42.3918 13.344L38.7918 13.008V11.664H48.9678V31.968C48.9678 33.056 49.0158 33.712 49.1118 33.936C49.2078 34.128 49.5118 34.256 50.0238 34.32L52.6638 34.656Z" fill="black"/>
<path d="M22.3169 27.744H23.6609V36H0.860901V34.656L3.5009 34.32C4.0129 34.256 4.3169 34.128 4.4129 33.936C4.5089 33.712 4.5569 33.056 4.5569 31.968V7.39198C4.5569 6.30398 4.5089 5.66398 4.4129 5.47198C4.3169 5.24798 4.0129 5.10398 3.5009 5.03998L0.860901 4.70399V3.35999H14.0129V4.70399L11.3729 5.03998C10.8609 5.10398 10.5569 5.24798 10.4609 5.47198C10.3649 5.66398 10.3169 6.30398 10.3169 7.39198V34.32H18.1889C18.9569 34.32 19.5009 34.304 19.8209 34.272C20.1409 34.208 20.3489 34.096 20.4449 33.936C20.5729 33.744 20.6849 33.456 20.7809 33.072L22.3169 27.744Z" fill="black"/>
</svg>
