<svg width="103" height="103" viewBox="0 0 103 103" fill="none" xmlns="http://www.w3.org/2000/svg">
<g clip-path="url(#clip0_2_23)">
<path fill-rule="evenodd" clip-rule="evenodd" d="M40.7543 30.6071C39.426 29.8481 37.7941 29.8536 36.4709 30.6214C35.1477 31.3893 34.3333 32.8035 34.3333 34.3333V68.6667C34.3333 70.1966 35.1477 71.6107 36.4709 72.3785C37.7941 73.1463 39.426 73.1519 40.7543 72.3927L70.7958 55.226C72.1331 54.4621 72.9583 53.0403 72.9583 51.5C72.9583 49.9597 72.1331 48.5379 70.7958 47.774L40.7543 30.6071ZM60.0164 51.5L42.9167 61.2713V41.7286L60.0164 51.5Z" fill="white"/>
<path fill-rule="evenodd" clip-rule="evenodd" d="M0 51.5C0 35.4074 0 27.3611 4.09818 21.7204C5.42171 19.8987 7.02374 18.2967 8.84542 16.9732C14.4861 12.875 22.5324 12.875 38.625 12.875H64.375C80.4675 12.875 88.5139 12.875 94.1544 16.9732C95.9763 18.2967 97.5783 19.8987 98.9019 21.7204C103 27.3611 103 35.4074 103 51.5C103 67.5925 103 75.6389 98.9019 81.2794C97.5783 83.1013 95.9763 84.7033 94.1544 86.0269C88.5139 90.125 80.4675 90.125 64.375 90.125H38.625C22.5324 90.125 14.4861 90.125 8.84542 86.0269C7.02374 84.7033 5.42171 83.1013 4.09818 81.2794C0 75.6389 0 67.5925 0 51.5ZM38.625 21.4583H64.375C72.6124 21.4583 78.101 21.4701 82.2597 21.9207C86.2578 22.3538 87.9963 23.1084 89.1096 23.9172C90.2022 24.7114 91.1636 25.6726 91.958 26.7656C92.7665 27.8789 93.521 29.6173 93.9544 33.6153C94.4051 37.7738 94.4167 43.2626 94.4167 51.5C94.4167 59.7374 94.4051 65.226 93.9544 69.3847C93.521 73.3828 92.7665 75.1213 91.958 76.2346C91.1636 77.3272 90.2022 78.2886 89.1096 79.083C87.9963 79.8915 86.2578 80.646 82.2597 81.0795C78.101 81.5301 72.6124 81.5417 64.375 81.5417H38.625C30.3875 81.5417 24.8988 81.5301 20.7403 81.0795C16.7423 80.646 15.0039 79.8915 13.8906 79.083C12.7976 78.2886 11.8364 77.3272 11.0422 76.2346C10.2334 75.1213 9.47883 73.3828 9.04567 69.3847C8.59513 65.226 8.58333 59.7374 8.58333 51.5C8.58333 43.2626 8.59513 37.7738 9.04567 33.6153C9.47883 29.6173 10.2334 27.8789 11.0422 26.7656C11.8364 25.6726 12.7976 24.7114 13.8906 23.9172C15.0039 23.1084 16.7423 22.3538 20.7403 21.9207C24.8988 21.4701 30.3875 21.4583 38.625 21.4583Z" fill="white"/>
</g>
<defs>
<clipPath id="clip0_2_23">
<rect width="103" height="103" fill="white"/>
</clipPath>
</defs>
</svg>
